<?xml version="1.0" standalone="no"?>
<!DOCTYPE svg PUBLIC "-//W3C//DTD SVG 20010904//EN"
 "http://www.w3.org/TR/2001/REC-SVG-20010904/DTD/svg10.dtd">
<svg version="1.0" xmlns="http://www.w3.org/2000/svg"
 width="256.000000pt" height="256.000000pt" viewBox="0 0 256.000000 256.000000"
 preserveAspectRatio="xMidYMid meet">

<g transform="translate(0.000000,256.000000) scale(0.100000,-0.100000)"
fill="#000000" stroke="none">
<path d="M1111 2324 c-29 -8 -67 -24 -84 -36 l-31 -22 24 -6 c14 -3 47 0 75 7
27 7 79 12 115 11 l65 -1 -80 -6 c-53 -5 -96 -14 -128 -30 -52 -25 -49 -43 7
-35 21 3 39 -2 55 -14 36 -29 14 -57 -77 -99 -73 -33 -122 -38 -122 -12 0 6
-4 7 -10 4 -5 -3 -10 3 -10 14 0 17 -7 21 -32 23 -63 3 -103 -4 -140 -25 -41
-22 -46 -32 -23 -41 8 -3 15 -11 15 -18 0 -7 -27 -67 -60 -133 l-61 -120 0
-135 c-1 -107 -4 -139 -17 -152 -8 -10 -11 -18 -6 -18 6 0 23 -21 39 -46 32
-51 63 -73 75 -54 15 25 30 -2 30 -54 0 -67 32 -241 64 -348 13 -46 28 -99 32
-118 13 -65 53 -140 124 -232 78 -102 97 -117 153 -118 21 0 48 -7 61 -15 36
-24 127 -55 159 -55 39 0 87 -49 87 -89 0 -27 -5 -31 -56 -51 -49 -18 -62 -19
-93 -9 -49 16 -208 96 -216 109 -3 5 -17 10 -31 10 -21 0 -23 -2 -13 -19 13
-20 111 -82 197 -125 53 -27 69 -56 31 -56 -35 0 -215 99 -269 147 -65 58 -85
95 -69 126 11 20 11 21 -5 8 -10 -8 -16 -25 -14 -40 2 -19 -7 -34 -36 -60 -35
-32 -38 -39 -33 -76 l4 -40 -14 36 -14 35 -121 -115 c-66 -64 -146 -130 -177
-148 -31 -17 -67 -43 -80 -57 l-24 -26 946 0 c677 0 947 3 947 11 0 6 -21 52
-47 102 -65 127 -146 207 -268 266 -49 23 -97 48 -105 55 -8 8 -36 21 -62 31
-26 9 -49 23 -52 31 -3 8 -10 14 -16 14 -8 0 -7 -6 0 -20 16 -29 4 -40 -41
-40 -32 0 -39 3 -39 20 0 11 -9 25 -20 32 -14 9 -20 24 -20 51 0 30 11 52 54
110 60 79 95 150 136 275 17 53 35 89 49 99 18 12 21 21 16 46 -6 26 -5 30 5
20 19 -17 97 108 109 174 14 74 3 107 -38 111 -32 3 -33 4 -26 40 8 46 12 52
31 52 29 0 71 29 83 58 7 16 11 60 9 98 l-3 69 -16 -30 c-9 -16 -14 -37 -11
-45 3 -11 -2 -9 -17 5 -41 36 -44 52 -19 93 33 54 31 139 -7 211 -99 196 -486
404 -745 400 -25 0 -69 -7 -99 -15z m247 -423 c80 -21 105 -35 169 -94 31 -28
43 -47 43 -67 0 -15 7 -41 15 -56 l15 -29 -93 -6 c-157 -9 -199 -37 -165 -107
14 -27 13 -31 -9 -56 -12 -15 -23 -33 -23 -40 0 -8 -22 -17 -61 -23 l-60 -10
-13 31 c-15 36 -34 54 -73 67 -23 7 -19 8 19 4 40 -4 49 -1 63 17 22 32 19 65
-7 82 -13 8 -53 18 -90 22 -77 8 -169 -3 -147 -17 9 -6 4 -7 -16 -3 -47 9 -80
-22 -70 -65 4 -20 15 -35 26 -38 26 -7 24 -18 -5 -31 -13 -6 -30 -24 -37 -41
-8 -17 -17 -31 -20 -31 -10 0 10 -110 25 -139 32 -59 89 -94 160 -94 53 -1 92
15 137 55 37 33 49 60 49 111 0 42 2 44 39 57 29 9 43 10 60 1 20 -11 21 -19
21 -155 l0 -144 -35 -31 c-20 -17 -46 -31 -58 -31 -38 0 -115 -28 -183 -66
-56 -31 -72 -36 -110 -31 -52 5 -86 32 -116 90 -33 65 -59 186 -61 280 l-1 87
-46 2 -45 2 48 3 47 4 0 45 c0 25 9 62 20 84 11 21 34 87 51 147 53 183 71
205 161 196 48 -5 154 10 223 32 27 9 87 3 153 -14z m-300 -378 c-10 -2 -26
-2 -35 0 -10 3 -2 5 17 5 19 0 27 -2 18 -5z m26 -33 c51 -11 77 -38 86 -89 12
-69 -3 -120 -48 -162 -86 -81 -231 -51 -271 54 -16 40 -14 113 4 147 24 47
137 72 229 50z m389 -25 c34 -10 54 -11 70 -4 16 7 34 6 62 -3 33 -11 41 -18
43 -43 2 -16 10 -37 17 -45 11 -13 10 -24 -9 -69 -12 -30 -33 -63 -47 -74 -53
-39 -136 -39 -188 1 -29 22 -31 60 -5 99 8 12 14 34 14 48 0 25 -1 25 -25 9
-14 -9 -26 -12 -26 -8 -5 32 -4 62 2 58 4 -2 10 3 13 12 4 10 2 13 -7 9 -6 -4
-3 1 7 9 24 19 20 19 79 1z m46 -295 c30 0 41 -3 32 -9 -9 -6 -10 -11 -2 -15
7 -5 7 -15 0 -34 -9 -23 -18 -72 -21 -117 -1 -5 -25 1 -54 15 -29 14 -49 26
-45 28 12 4 -3 64 -28 112 -33 63 -28 71 26 44 28 -15 64 -24 92 -24z m-705
-176 c3 -8 2 -12 -4 -9 -6 3 -10 10 -10 16 0 14 7 11 14 -7z m116 -65 c39 0
42 -2 21 -10 -31 -12 -92 4 -117 32 l-19 21 35 -21 c21 -13 53 -21 80 -22z
m465 0 c-49 -10 -189 -9 -230 1 -18 5 31 8 120 8 105 0 138 -3 110 -9z m64
-36 c-33 -89 -168 -140 -262 -100 -25 10 -16 12 67 12 106 0 131 11 175 78 29
44 34 46 20 10z"/>
<path d="M1000 1411 c-5 -11 -10 -38 -10 -60 0 -62 51 -87 88 -43 15 20 16 94
0 110 -19 19 -66 15 -78 -7z"/>
<path d="M1462 1434 c-27 -19 -31 -87 -6 -122 22 -31 77 -30 109 3 40 39 30
78 -29 114 -40 25 -45 25 -74 5z"/>
<path d="M591 1544 c0 -11 3 -14 6 -6 3 7 2 16 -1 19 -3 4 -6 -2 -5 -13z"/>
<path d="M986 492 c-5 -15 -2 -31 9 -48 23 -35 27 -26 12 27 -12 39 -14 42
-21 21z"/>
</g>
</svg>
